<svg width="38" height="38" viewBox="0 0 38 38" fill="none" xmlns="http://www.w3.org/2000/svg">
<g clip-path="url(#clip0_7013_684)">
<path d="M38 19C38 8.50659 29.4934 0 19 0C8.50659 0 0 8.50659 0 19C0 29.4934 8.50659 38 19 38C29.4934 38 38 29.4934 38 19Z" fill="url(#paint0_linear_7013_684)"/>
<path d="M18.9459 5.65186C22.5992 5.65187 26.1029 7.10315 28.6862 9.68645C31.2694 12.2697 32.7208 15.7734 32.7208 19.4267H27.4447C27.86 20.4669 28.0886 21.602 28.0886 22.7905C28.0886 27.8032 24.0252 31.8668 19.0125 31.8668C13.9998 31.8668 9.93605 27.8032 9.93605 22.7905C9.93605 21.602 10.1647 20.4669 10.5801 19.4267H5.1709C5.17091 15.7734 6.62221 12.2697 9.20549 9.68645C11.7888 7.10314 15.2925 5.65186 18.9459 5.65186ZM16.7035 11.3541C15.913 11.3541 15.2722 11.995 15.2722 12.7855C15.2722 13.5761 15.913 14.217 16.7035 14.217H16.8717V17.3359C14.6952 18.1908 13.1544 20.3107 13.1544 22.7905C13.1544 26.0259 15.7771 28.6486 19.0125 28.6486C22.2478 28.6486 24.8705 26.0259 24.8705 22.7905C24.8705 20.3289 23.3521 18.2222 21.2008 17.3551V14.217H21.2627C22.0532 14.217 22.6942 13.5761 22.6942 12.7855C22.6942 11.995 22.0534 11.3542 21.2628 11.3541H16.7035Z" fill="white"/>
</g>
<defs>
<linearGradient id="paint0_linear_7013_684" x1="-94" y1="-145.5" x2="-38.7047" y2="-168.939" gradientUnits="userSpaceOnUse">
<stop offset="0.654725" stop-color="#657AFF"/>
<stop offset="1" stop-color="#A4A3FF"/>
</linearGradient>
<clipPath id="clip0_7013_684">
<rect width="38" height="38" fill="white"/>
</clipPath>
</defs>
</svg>
